<?xml version="1.0" encoding="UTF-8" standalone="no"?>
<svg
   width="25"
   height="25"
   viewBox="0 0 25 25"
   fill="none"
   version="1.1"
   id="svg20"
   sodipodi:docname="2.svg"
   inkscape:version="1.2.2 (b0a8486541, 2022-12-01)"
   xmlns:inkscape="http://www.inkscape.org/namespaces/inkscape"
   xmlns:sodipodi="http://sodipodi.sourceforge.net/DTD/sodipodi-0.dtd"
   xmlns="http://www.w3.org/2000/svg"
   xmlns:svg="http://www.w3.org/2000/svg">
  <defs
     id="defs24" />
  <sodipodi:namedview
     id="namedview22"
     pagecolor="#ffffff"
     bordercolor="#000000"
     borderopacity="0.25"
     inkscape:showpageshadow="2"
     inkscape:pageopacity="0.0"
     inkscape:pagecheckerboard="0"
     inkscape:deskcolor="#d1d1d1"
     showgrid="false"
     inkscape:zoom="41.08"
     inkscape:cx="12.487829"
     inkscape:cy="12.487829"
     inkscape:window-width="2560"
     inkscape:window-height="1369"
     inkscape:window-x="-8"
     inkscape:window-y="-8"
     inkscape:window-maximized="1"
     inkscape:current-layer="svg20" />
  <path
     d="M1.81982 11.603V16.7665C1.81982 21.93 3.96421 24 9.31327 24H15.7345C21.0836 24 23.228 21.93 23.228 16.7665V11.603"
     stroke="#4DA6AA"
     stroke-width="1.5"
     stroke-linecap="round"
     stroke-linejoin="round"
     id="path14" />
  <path
     d="M12.5292 12.5C14.7093 12.5 16.3176 10.7865 16.1032 8.682L15.3169 1H9.75341L8.95522 8.682C8.74078 10.7865 10.3491 12.5 12.5292 12.5Z"
     stroke="#4DA6AA"
     stroke-width="1.5"
     stroke-linecap="round"
     stroke-linejoin="round"
     id="path16" />
  <path
     d="M20.0471 12.5C22.4535 12.5 24.2167 10.614 23.9784 8.3025L23.6449 5.14C23.216 2.15 22.0247 1 18.9034 1H15.2698L16.1038 9.0615C16.3063 10.959 18.0814 12.5 20.0471 12.5ZM4.95295 12.5C6.91863 12.5 8.69371 10.959 8.88432 9.0615L9.14642 6.52L9.71825 1H6.08471C2.96343 1 1.7721 2.15 1.34323 5.14L1.02157 8.3025C0.783304 10.614 2.54647 12.5 4.95295 12.5ZM12.5298 18.25C10.5403 18.25 9.55147 19.2045 9.55147 21.125V24H15.5081V21.125C15.5081 19.2045 14.5193 18.25 12.5298 18.25Z"
     stroke="#4DA6AA"
     stroke-width="1.5"
     stroke-linecap="round"
     stroke-linejoin="round"
     id="path18" />
  <path
     style="fill:#ffffff;stroke-width:0.0243427"
     d="M 8.2035054,24.70612 C 4.4761122,24.473722 2.3676015,23.055398 1.5112684,20.204479 1.3266727,19.58992 1.2041024,18.902357 1.1293896,18.062317 1.0958064,17.684722 1.0874756,17.130284 1.0778162,14.62999 c -0.00794,-2.055976 -0.00346,-3.025556 0.01445,-3.122292 L 1.1182373,11.367392 0.98801154,11.166899 C 0.48494993,10.392398 0.2468878,9.5334635 0.27462704,8.5929893 0.28898693,8.10613 0.58313936,5.204935 0.6707001,4.6865613 0.91459951,3.2426383 1.3448989,2.2784088 2.0674881,1.5565911 2.7720377,0.85279372 3.5627877,0.50603184 4.8807205,0.32292449 c 0.2659647,-0.0369519 0.9272987,-0.0413657 7.3880235,-0.0493082 5.069694,-0.006232 7.1967,-9.6769e-4 7.44888,0.0184375 0.89918,0.0691917 1.60007,0.24093045 2.20088,0.53928082 1.294732,0.64293889 2.022301,1.79266489 2.385376,3.76944439 0.08782,0.4781438 0.407184,3.5025995 0.421553,3.9922103 0.02735,0.9321166 -0.212837,1.8042047 -0.706877,2.5665387 -0.09794,0.151129 -0.106438,0.175313 -0.08125,0.231257 0.03823,0.08491 0.0521,4.662795 0.01749,5.770851 -0.05789,1.853414 -0.290466,2.995234 -0.840633,4.127107 -1.039564,2.138726 -3.034061,3.218019 -6.317666,3.418711 -0.472008,0.02885 -8.1279522,0.02766 -8.5929896,-0.0013 z m 6.5676776,-2.529879 c 0.0043,-0.63175 -0.0036,-1.210636 -0.01874,-1.388875 -0.08292,-0.972837 -0.472815,-1.486655 -1.284301,-1.692505 -0.315864,-0.08013 -0.732301,-0.116989 -1.126368,-0.09971 -1.171926,0.0514 -1.759436,0.451107 -1.975817,1.344242 -0.05027,0.207492 -0.05329,0.283778 -0.06238,1.575288 l -0.0096,1.357235 2.234927,-0.0062 2.234926,-0.0062 z M 8.812074,22.058756 c 0,-0.660423 0.01155,-1.306726 0.025993,-1.454479 0.1653043,-1.691114 1.1155545,-2.734116 2.748106,-3.016344 0.592327,-0.102398 1.393373,-0.09646 1.968897,0.01459 1.550131,0.299115 2.45622,1.286235 2.655912,2.893429 0.01499,0.120687 0.02563,0.735832 0.02563,1.482564 v 1.27629 l 0.371227,-0.01666 c 1.63861,-0.07355 2.90647,-0.410129 3.829083,-1.016519 0.333279,-0.219048 0.807281,-0.684652 1.025087,-1.006924 0.550494,-0.814529 0.837339,-1.754031 0.984772,-3.225414 0.03319,-0.331226 0.06098,-5.390685 0.02952,-5.375036 -0.572995,0.285062 -1.004584,0.442628 -1.444172,0.527242 -1.384669,0.266527 -2.718409,-0.04153 -3.833982,-0.885547 -0.272131,-0.205888 -0.682745,-0.601307 -0.865129,-0.833115 -0.0553,-0.07029 -0.107835,-0.127324 -0.116737,-0.126744 -0.0089,5.79e-4 -0.05684,0.06357 -0.106522,0.13997 -0.22941,0.352786 -0.665929,0.778508 -1.090288,1.063322 C 13.46271,13.544222 11.276788,13.469254 9.7931317,12.320138 9.5142028,12.104101 9.1269075,11.699441 8.9581305,11.447695 8.8844937,11.33786 8.8178866,11.247624 8.8101149,11.247172 c -0.00777,-4.53e-4 -0.051396,0.05107 -0.096943,0.114491 -0.1157388,0.161163 -0.5612683,0.618282 -0.7652656,0.785172 -0.2237716,0.183068 -0.6035109,0.43029 -0.8755299,0.569997 -1.31274,0.674214 -2.8855012,0.689727 -4.2586711,0.042 l -0.2577172,-0.121565 1.41e-5,2.243925 c 1.4e-5,2.22589 0.015483,2.840098 0.087471,3.473233 0.3005207,2.643046 1.4303771,4.040557 3.7213976,4.602969 0.6446236,0.158246 1.5302945,0.272056 2.2220321,0.285536 l 0.2251704,0.0044 z M 5.6231743,11.687962 C 6.3951482,11.508729 7.12615,11.032711 7.591028,10.406524 7.7767281,10.156387 7.9977376,9.6973834 8.0694864,9.4128371 8.1172084,9.2235777 8.2084433,8.4140426 8.5074343,5.5268922 8.7151517,3.5211064 8.8851022,1.8445901 8.8851022,1.8013004 v -0.078708 l -1.746592,0.013001 C 5.7480453,1.7459435 5.3306821,1.7564503 5.0915908,1.787123 4.2420655,1.8961076 3.7171697,2.0837431 3.2718347,2.4376345 2.7109311,2.8833639 2.3170626,3.7470611 2.1188702,4.9659202 2.0302746,5.5107724 1.7466225,8.4023586 1.747549,8.7512171 c 0.00402,1.5135059 1.0743475,2.7128079 2.6504084,2.9697799 0.3012191,0.04911 0.9463133,0.03172 1.2252169,-0.03303 z m 7.4085007,0.03319 c 1.215638,-0.18323 2.139362,-1.076354 2.316388,-2.2396505 0.03331,-0.2188773 0.03297,-0.2226419 -0.354538,-3.9756212 -0.213333,-2.0660952 -0.387877,-3.7612631 -0.387877,-3.76704 0,-0.00578 -0.941037,-0.010503 -2.091192,-0.010503 h -2.091192 l -0.01473,0.115628 c -0.02181,0.1711943 -0.7135311,6.8814929 -0.7277847,7.0601514 -0.016911,0.2119613 0.019794,0.5944686 0.079474,0.8282118 0.1463379,0.5731485 0.4887747,1.0893775 0.9579287,1.4440925 0.352304,0.266367 0.889835,0.487588 1.346959,0.554341 0.232201,0.03391 0.709321,0.02917 0.966565,-0.0096 z m 7.744859,-0.03213 c 1.49029,-0.322313 2.472035,-1.487555 2.475173,-2.9378059 8.34e-4,-0.3855937 -0.314851,-3.422877 -0.408558,-3.930832 C 22.725352,4.1818418 22.577219,3.6974306 22.378417,3.3006597 22.226627,2.9977145 22.120601,2.8428325 21.920749,2.6321042 21.542173,2.232925 21.08655,2.0068394 20.374878,1.8650233 19.841794,1.7587949 19.639267,1.7483958 17.849318,1.735344 16.435081,1.725032 16.139241,1.728484 16.139241,1.7553 c 0,0.017834 0.158197,1.5827796 0.351549,3.4776571 0.193353,1.8948776 0.358425,3.5657286 0.366829,3.7130022 0.0084,0.1472736 0.0365,0.3526609 0.06244,0.4564163 0.27082,1.0832564 1.336625,2.0623934 2.49328,2.2905334 0.304909,0.06014 0.31766,0.06104 0.742454,0.05202 0.278577,-0.0059 0.468788,-0.02304 0.62074,-0.05591 z"
     id="path289" />
</svg>
