<svg width="11" height="10" viewBox="0 0 11 10" fill="none" xmlns="http://www.w3.org/2000/svg">
<path d="M10.5 0.822575V2.71888C10.5002 2.84006 10.4727 2.95977 10.4194 3.06946C10.3662 3.17914 10.2886 3.27607 10.1921 3.35331L8.68279 4.56276C8.12791 5.00589 7.2907 4.62442 7.2907 3.92833C7.29073 3.8203 7.26876 3.71332 7.22606 3.61351C7.18335 3.51369 7.12074 3.423 7.04181 3.34661C6.96287 3.27023 6.86915 3.20964 6.76601 3.16831C6.66287 3.12698 6.55233 3.10572 6.4407 3.10575H4.5593C4.44767 3.10572 4.33713 3.12698 4.23398 3.16831C4.13084 3.20964 4.03713 3.27023 3.95819 3.34661C3.87926 3.423 3.81665 3.51369 3.77394 3.61351C3.73124 3.71332 3.70927 3.8203 3.7093 3.92833V8.05043C3.70946 8.1765 3.67968 8.30092 3.62226 8.41408C3.56484 8.52724 3.48132 8.62612 3.37814 8.70309L1.8686 9.82836C1.30977 10.244 0.5 9.85739 0.5 9.1757V0.822575C0.499969 0.714544 0.521935 0.607567 0.56464 0.507754C0.607346 0.407941 0.669955 0.31725 0.748891 0.240861C0.827827 0.164472 0.921542 0.103882 1.02468 0.0625546C1.12782 0.0212268 1.23837 -2.95382e-05 1.35 3.08069e-08H9.65C9.76163 -2.95382e-05 9.87218 0.0212268 9.97532 0.0625546C10.0785 0.103882 10.1722 0.164472 10.2511 0.240861C10.33 0.31725 10.3927 0.407941 10.4354 0.507754C10.4781 0.607567 10.5 0.714544 10.5 0.822575Z" fill="#F6F6F7"/>
<path d="M5.97132 5.96813C5.77862 6.11221 5.62271 6.29719 5.51559 6.50882C5.40847 6.72044 5.35302 6.95305 5.35352 7.1887C5.35401 7.42435 5.41044 7.65674 5.51844 7.86794C5.62644 8.07914 5.78314 8.26351 5.97643 8.40682L7.68434 9.67501C7.96189 9.88071 8.30172 9.99223 8.65132 9.99233C10.1706 9.99233 10.8246 8.12776 9.61922 7.23294L7.91132 5.96386C7.63279 5.7573 7.29147 5.64571 6.94057 5.64649C6.58966 5.64726 6.24887 5.76035 5.97132 5.96813Z" fill="#F6F6F7"/>
</svg>
