<svg width="16" height="16" viewBox="0 0 16 16" fill="none" xmlns="http://www.w3.org/2000/svg">
<path d="M11.1478 0.5H4.85967C2.12831 0.5 0.5 2.1275 0.5 4.8575V11.135C0.5 13.8725 2.12831 15.5 4.85967 15.5H11.1403C13.8717 15.5 15.5 13.8725 15.5 11.1425V4.8575C15.5075 2.1275 13.8792 0.5 11.1478 0.5ZM7.21585 12.1325C6.99824 12.35 6.58553 12.56 6.28538 12.605L4.43946 12.8675C4.37193 12.875 4.3044 12.8825 4.23686 12.8825C3.92921 12.8825 3.64407 12.7775 3.44147 12.575C3.19384 12.3275 3.08879 11.9675 3.14882 11.57L3.41145 9.725C3.45647 9.4175 3.65907 9.0125 3.88419 8.795L7.23085 5.45C7.29088 5.6075 7.35091 5.765 7.43345 5.945C7.50849 6.1025 7.59103 6.2675 7.68108 6.4175C7.75612 6.545 7.83866 6.665 7.90619 6.755C7.98873 6.8825 8.08628 7.0025 8.14631 7.07C8.18383 7.1225 8.21384 7.16 8.22885 7.175C8.41644 7.4 8.63405 7.61 8.82165 7.7675C8.87417 7.82 8.90419 7.85 8.9192 7.8575C9.03175 7.9475 9.14431 8.0375 9.24186 8.105C9.36192 8.195 9.48198 8.2775 9.60954 8.345C9.75961 8.435 9.9247 8.5175 10.0898 8.6C10.2624 8.675 10.4199 8.7425 10.5775 8.795L7.21585 12.1325ZM12.0332 7.3175L11.3429 8.015C11.2979 8.06 11.2379 8.0825 11.1778 8.0825C11.1553 8.0825 11.1253 8.0825 11.1103 8.075C9.58703 7.64 8.37142 6.425 7.93621 4.9025C7.91369 4.82 7.93621 4.73 7.99623 4.6775L8.69408 3.98C9.83465 2.84 10.9227 2.8625 12.0407 3.98C12.611 4.55 12.8887 5.0975 12.8887 5.6675C12.8812 6.2075 12.6035 6.7475 12.0332 7.3175Z" fill="#338C90"/>
</svg>
