<svg width="16" height="16" viewBox="0 0 16 16" fill="none" xmlns="http://www.w3.org/2000/svg">
<path d="M11.72 2.9751H4.28C1.92 2.9751 0 4.89522 0 7.25534V11.7197C0 14.0799 1.92 16 4.28 16H11.72C14.08 16 16 14.0799 16 11.7197V7.25534C16 4.89522 14.08 2.9751 11.72 2.9751ZM10 8.01547C10 7.57544 10.36 7.21542 10.8 7.21542C11.24 7.21542 11.6 7.57544 11.6 8.01547C11.6 8.4555 11.24 8.82345 10.8 8.82345C10.36 8.82345 10 8.4715 10 8.03147V8.01547ZM6.504 11.2557C6.384 11.3757 6.232 11.4317 6.08 11.4317C5.928 11.4317 5.776 11.3757 5.656 11.2557L4.832 10.4316L4.04 11.2237C3.92 11.3437 3.768 11.3997 3.616 11.3997C3.464 11.3997 3.312 11.3437 3.192 11.2237C2.96 10.9917 2.96 10.6076 3.192 10.3756L3.984 9.58358L3.216 8.81553C2.984 8.58351 2.984 8.19948 3.216 7.96747C3.448 7.73545 3.832 7.73545 4.064 7.96747L4.832 8.73552L5.624 7.94347C5.856 7.71145 6.24 7.71145 6.472 7.94347C6.704 8.17548 6.704 8.55951 6.472 8.79144L5.68 9.58358L6.504 10.4076C6.736 10.6396 6.736 11.0237 6.504 11.2557ZM9.232 10.3996C8.792 10.3996 8.424 10.0396 8.424 9.59958C8.424 9.15955 8.776 8.79952 9.216 8.79952H9.232C9.672 8.79952 10.032 9.15955 10.032 9.59958C10.032 10.0396 9.68 10.3996 9.232 10.3996ZM10.8 11.9757C10.36 11.9757 10 11.6237 10 11.1837V11.1676C10 10.7276 10.36 10.3675 10.8 10.3675C11.24 10.3675 11.6 10.7276 11.6 11.1676C11.6 11.6076 11.248 11.9757 10.8 11.9757ZM12.384 10.3996C11.944 10.3996 11.576 10.0396 11.576 9.59958C11.576 9.15955 11.928 8.79952 12.368 8.79952H12.384C12.824 8.79952 13.184 9.15955 13.184 9.59958C13.184 10.0396 12.832 10.3996 12.384 10.3996Z" fill="white"/>
<path d="M9.3115 0.568038L9.3035 1.32009C9.2955 2.02413 8.7115 2.60817 7.9995 2.60817C7.8795 2.60817 7.8075 2.68818 7.8075 2.79219C7.8075 2.89619 7.8875 2.9762 7.9915 2.9762H6.7035C6.6955 2.92019 6.6875 2.85619 6.6875 2.79219C6.6875 2.07214 7.2715 1.4881 7.9835 1.4881C8.1035 1.4881 8.1835 1.40809 8.1835 1.30409L8.1915 0.552037C8.1995 0.248017 8.4475 0 8.7515 0H8.7595C9.0715 0 9.3115 0.256017 9.3115 0.568038Z" fill="white"/>
</svg>
