<svg width="18" height="18" viewBox="0 0 18 18" fill="none" xmlns="http://www.w3.org/2000/svg">
<path d="M12.7668 2.61587C14.3898 2.61587 15.6949 3.88387 15.6949 5.44262C15.6949 6.96907 14.44 8.21284 12.8756 8.26937C12.8033 8.26129 12.7303 8.26129 12.658 8.26937M14.3814 15.5382C14.9838 15.417 15.5527 15.1828 16.0212 14.8355C17.3263 13.8906 17.3263 12.3318 16.0212 11.3869C15.561 11.0477 15.0005 10.8215 14.4065 10.6923M6.70144 8.16438C6.61778 8.1563 6.51739 8.1563 6.42536 8.16438C5.46511 8.13291 4.55526 7.74185 3.88847 7.07403C3.22169 6.40621 2.85034 5.51406 2.85307 4.58652C2.85307 2.60779 4.50954 1.00058 6.56758 1.00058C7.55162 0.983447 8.50241 1.34439 9.21078 2.00401C9.91915 2.66363 10.3271 3.56789 10.3448 4.51787C10.3626 5.46785 9.9887 6.38573 9.30543 7.06958C8.62216 7.75343 7.68548 8.14724 6.70144 8.16438ZM2.51843 11.1446C0.493856 12.453 0.493856 14.5851 2.51843 15.8855C4.81909 17.3715 8.59216 17.3715 10.8928 15.8855C12.9174 14.5771 12.9174 12.4449 10.8928 11.1446C8.60052 9.6666 4.82745 9.6666 2.51843 11.1446Z" stroke="#C6C6C6" stroke-width="1.5" stroke-linecap="round" stroke-linejoin="round"/>
</svg>
