<svg width="16" height="16" viewBox="0 0 16 16" fill="none" xmlns="http://www.w3.org/2000/svg">
<path d="M10.685 1.83059C8.24407 -0.610195 4.27125 -0.610195 1.83031 1.83059C-0.610103 4.2719 -0.610103 8.24392 1.83031 10.6852C4.00403 12.8583 7.3895 13.0911 9.82886 11.3942C9.88018 11.6371 9.99765 11.8688 10.1866 12.0577L13.7413 15.6123C14.2594 16.1292 15.0965 16.1292 15.6119 15.6123C16.1294 15.0948 16.1294 14.2578 15.6119 13.7419L12.0571 10.1863C11.8692 9.99898 11.6369 9.88098 11.3941 9.82966C13.0921 7.38994 12.8593 4.00523 10.685 1.83059ZM9.5627 9.56299C7.74032 11.3852 4.77447 11.3852 2.95263 9.56299C1.13131 7.74074 1.13131 4.77561 2.95263 2.95336C4.77447 1.13163 7.74032 1.13163 9.5627 2.95336C11.3851 4.77561 11.3851 7.74074 9.5627 9.56299Z" fill="#C6C6C6"/>
</svg>
