<svg width="18" height="18" viewBox="0 0 18 18" fill="none" xmlns="http://www.w3.org/2000/svg">
<path d="M17 4.11111H12.2M4.2 4.11111H1M17 13.8889H13.8M5.8 13.8889H1M7.4 7.22222C7.7677 7.22222 8.1318 7.14175 8.47151 6.9854C8.81123 6.82906 9.11989 6.59989 9.3799 6.311C9.6399 6.02211 9.84615 5.67914 9.98686 5.30168C10.1276 4.92422 10.2 4.51967 10.2 4.11111C10.2 3.70255 10.1276 3.298 9.98686 2.92054C9.84615 2.54308 9.6399 2.20012 9.3799 1.91122C9.11989 1.62233 8.81123 1.39317 8.47151 1.23682C8.1318 1.08047 7.7677 1 7.4 1C6.65739 1 5.9452 1.32778 5.4201 1.91122C4.895 2.49467 4.6 3.28599 4.6 4.11111C4.6 4.93623 4.895 5.72755 5.4201 6.311C5.9452 6.89445 6.65739 7.22222 7.4 7.22222ZM10.6 17C11.3426 17 12.0548 16.6722 12.5799 16.0888C13.105 15.5053 13.4 14.714 13.4 13.8889C13.4 13.0638 13.105 12.2724 12.5799 11.689C12.0548 11.1056 11.3426 10.7778 10.6 10.7778C9.85739 10.7778 9.1452 11.1056 8.6201 11.689C8.095 12.2724 7.8 13.0638 7.8 13.8889C7.8 14.714 8.095 15.5053 8.6201 16.0888C9.1452 16.6722 9.85739 17 10.6 17Z" stroke="#F6F6F7" stroke-width="1.5" stroke-miterlimit="10" stroke-linecap="round" stroke-linejoin="round"/>
</svg>
