<?xml version="1.0" encoding="UTF-8" standalone="no"?>
<svg
   width="25"
   height="25"
   viewBox="0 0 25 25"
   fill="none"
   version="1.1"
   id="svg12"
   sodipodi:docname="1.svg"
   inkscape:version="1.2.2 (b0a8486541, 2022-12-01)"
   xmlns:inkscape="http://www.inkscape.org/namespaces/inkscape"
   xmlns:sodipodi="http://sodipodi.sourceforge.net/DTD/sodipodi-0.dtd"
   xmlns="http://www.w3.org/2000/svg"
   xmlns:svg="http://www.w3.org/2000/svg">
  <defs
     id="defs16" />
  <sodipodi:namedview
     id="namedview14"
     pagecolor="#ffffff"
     bordercolor="#000000"
     borderopacity="0.25"
     inkscape:showpageshadow="2"
     inkscape:pageopacity="0.0"
     inkscape:pagecheckerboard="0"
     inkscape:deskcolor="#d1d1d1"
     showgrid="false"
     inkscape:zoom="41.08"
     inkscape:cx="12.487829"
     inkscape:cy="12.487829"
     inkscape:window-width="2560"
     inkscape:window-height="1369"
     inkscape:window-x="-8"
     inkscape:window-y="-8"
     inkscape:window-maximized="1"
     inkscape:current-layer="svg12" />
  <path
     d="M24 8.498V3.277C24 1.6555 23.264 1 21.4355 1H16.7895C14.961 1 14.225 1.6555 14.225 3.277V8.4865C14.225 10.1195 14.961 10.7635 16.7895 10.7635H21.4355C23.264 10.775 24 10.1195 24 8.498ZM24 21.4355V16.7895C24 14.961 23.264 14.225 21.4355 14.225H16.7895C14.961 14.225 14.225 14.961 14.225 16.7895V21.4355C14.225 23.264 14.961 24 16.7895 24H21.4355C23.264 24 24 23.264 24 21.4355ZM10.775 8.498V3.277C10.775 1.6555 10.039 1 8.2105 1H3.5645C1.736 1 1 1.6555 1 3.277V8.4865C1 10.1195 1.736 10.7635 3.5645 10.7635H8.2105C10.039 10.775 10.775 10.1195 10.775 8.498ZM10.775 21.4355V16.7895C10.775 14.961 10.039 14.225 8.2105 14.225H3.5645C1.736 14.225 1 14.961 1 16.7895V21.4355C1 23.264 1.736 24 3.5645 24H8.2105C10.039 24 10.775 23.264 10.775 21.4355Z"
     stroke="#6FC8CC"
     stroke-width="1.5"
     stroke-linecap="round"
     stroke-linejoin="round"
     id="path10" />
  <path
     style="fill:#ffffff;stroke-width:0.0243427"
     d="M 3.2132425,11.489324 C 2.2257744,11.441975 1.5759359,11.216731 1.075055,10.748197 0.62696575,10.329045 0.38303286,9.8039905 0.29430695,9.0676728 0.25746708,8.7619464 0.2577768,2.991953 0.2946493,2.6898734 0.46767792,1.2723281 1.3129922,0.4781341 2.8359299,0.3022763 3.1046351,0.2712482 3.5894869,0.2670537 6.0491723,0.2744781 c 2.8607917,0.008635 2.9002323,0.009406 3.1740611,0.0620139 0.3422768,0.0657585 0.7280689,0.1929661 0.9732896,0.32092384 0.635073,0.33138476 1.071787,0.93910046 1.23075,1.71266756 0.08465,0.4119407 0.09017,0.6655907 0.08064,3.7034317 -0.0084,2.6912656 -0.01356,3.0150893 -0.05061,3.2010711 -0.1283,0.6441589 -0.355928,1.0982508 -0.726887,1.4500588 -0.526953,0.499747 -1.153329,0.716946 -2.2104609,0.766488 -0.5244932,0.02458 -4.7866787,0.02313 -5.3067186,-0.0018 z M 8.7110686,10.003163 C 9.3795526,9.9405441 9.7168333,9.7722466 9.8814593,9.4191573 10.0328,9.0945618 10.031283,9.1334788 10.022898,5.7912741 10.015909,3.0053982 10.011913,2.7504216 9.9729871,2.6070475 9.8352892,2.0998631 9.588026,1.9050696 8.9297663,1.7851996 8.7277943,1.7484202 8.4210772,1.7427558 6.1708861,1.7342486 3.4259165,1.7238709 3.0178269,1.7355496 2.6226601,1.8357919 2.3427585,1.9067948 2.2193024,1.9675376 2.0688288,2.108288 1.9313675,2.236867 1.8463128,2.4146709 1.7847979,2.7020448 c -0.041449,0.1936319 -0.044292,0.3967583 -0.044292,3.164557 0,3.1437232 -7.54e-5,3.1414768 0.1160663,3.4566699 0.1038848,0.2819294 0.2607675,0.4338809 0.5669463,0.5491263 0.1505785,0.056678 0.4948496,0.1217838 0.7410381,0.14014 0.3021594,0.02253 5.296026,0.01409 5.5465116,-0.0094 z"
     id="path245" />
  <path
     style="fill:#ffffff;stroke-width:0.0243427"
     d="M 16.419182,11.488797 C 14.738307,11.407545 13.8253,10.704777 13.542567,9.2745862 13.505933,9.0892748 13.500686,8.7550781 13.49231,6.0735151 13.48286,3.0480455 13.48896,2.762594 13.571372,2.3734177 13.737137,1.5906265 14.157713,1.0026717 14.794658,0.66329292 15.040229,0.5324472 15.427413,0.4036101 15.776767,0.33649201 c 0.273828,-0.0526082 0.313269,-0.0533788 3.174061,-0.0620139 2.459685,-0.007424 2.944537,-0.00323 3.213242,0.0277982 1.200841,0.13866444 1.974608,0.6565885 2.338014,1.56495989 0.08712,0.2177746 0.170744,0.5561954 0.203267,0.8226372 0.01808,0.1481427 0.02676,1.1823104 0.02681,3.1937386 4.9e-5,2.503702 -0.0057,3.0187305 -0.03643,3.2530528 -0.149677,1.1418022 -0.769922,1.8890582 -1.819986,2.1926762 -0.332038,0.09601 -0.622783,0.137678 -1.124967,0.161243 -0.542327,0.02545 -4.797696,0.02402 -5.3316,-0.0018 z m 5.863496,-1.5290745 c 0.692836,-0.156955 0.90088,-0.4161663 0.965631,-1.2031193 0.01782,-0.2165426 0.02343,-1.2337626 0.01716,-3.1090862 -0.0085,-2.5531446 -0.01292,-2.8025783 -0.0521,-2.969815 C 23.149997,2.4072078 23.062938,2.2315404 22.931171,2.108288 22.780698,1.9675376 22.657241,1.9067948 22.37734,1.8357919 21.982173,1.7355496 21.574083,1.7238709 18.829114,1.7342486 c -2.250191,0.00851 -2.556908,0.014172 -2.75888,0.050951 -0.658335,0.1198836 -0.898585,0.3087101 -1.042646,0.8194742 -0.04222,0.1496867 -0.04463,0.3264238 -0.04463,3.2740993 0,2.9204421 0.0027,3.1257955 0.04363,3.2740993 0.09708,0.3520687 0.227492,0.5291607 0.486222,0.6602593 0.16882,0.085542 0.470526,0.1603213 0.763863,0.1893283 0.118545,0.01172 1.464318,0.01915 2.990608,0.01651 l 2.775073,-0.0048 z"
     id="path316" />
  <path
     style="fill:#ffffff;stroke-width:0.0243427"
     d="m 16.139144,24.706331 c -1.422649,-0.151273 -2.290865,-0.90209 -2.554462,-2.209047 -0.0964,-0.477942 -0.102812,-0.72793 -0.09229,-3.595142 0.01087,-2.961395 0.0076,-2.882409 0.140457,-3.383642 0.260842,-0.983987 0.914824,-1.635967 1.895392,-1.889587 0.497452,-0.128665 0.424168,-0.125699 3.373903,-0.136523 2.867212,-0.01052 3.1172,-0.0041 3.595142,0.09229 1.076217,0.217059 1.790147,0.857487 2.074351,1.86079 0.151078,0.53334 0.143825,0.369737 0.154316,3.481013 0.0067,1.995848 0.0014,2.928228 -0.01772,3.115871 -0.164918,1.616181 -1.025804,2.484724 -2.641531,2.665026 -0.261371,0.02917 -5.652359,0.02821 -5.927555,-0.0011 z m 5.625315,-1.458508 c 1.059302,-0.07754 1.401162,-0.416199 1.483065,-1.469187 0.0318,-0.408876 0.0306,-4.906366 -0.0014,-5.329535 -0.07379,-0.975014 -0.355364,-1.317118 -1.187286,-1.44252 -0.347705,-0.05241 -5.551203,-0.05267 -5.895229,-2.97e-4 -0.749844,0.114164 -1.043135,0.407455 -1.157299,1.157299 -0.02912,0.191286 -0.03521,0.700383 -0.03521,2.945473 0,2.904894 0.0029,2.98302 0.122557,3.338311 0.172551,0.512209 0.542774,0.738781 1.30231,0.796997 0.367491,0.02817 4.99027,0.03114 5.368516,0.0035 z"
     id="path318" />
  <path
     style="fill:#ffffff;stroke-width:0.0243427"
     d="M 2.8967868,24.70544 C 2.1043334,24.612194 1.525032,24.360776 1.0821282,23.917872 0.62375623,23.4595 0.37638037,22.872445 0.29181502,22.042356 c -0.0190803,-0.187291 -0.0244353,-1.123777 -0.0178171,-3.115871 0.0103319,-3.109955 0.003214,-2.948735 0.15369389,-3.481013 0.0686503,-0.242829 0.23088776,-0.602931 0.3529046,-0.783306 0.37714949,-0.557531 0.96370049,-0.92452 1.72212009,-1.077484 0.4779417,-0.0964 0.7279293,-0.102812 3.5951413,-0.09229 2.9603888,0.01086 2.8801432,0.0075 3.3836417,0.140109 0.9798085,0.257978 1.6280235,0.906193 1.8860015,1.886001 0.132282,0.502408 0.129042,0.424138 0.140055,3.383642 0.01067,2.86788 0.0043,3.11652 -0.09224,3.595142 -0.217059,1.076217 -0.857487,1.790147 -1.8607902,2.074351 -0.5357627,0.151764 -0.3584287,0.144279 -3.5540409,0.15003 -1.6066213,0.0029 -3.0032863,-0.0044 -3.1037001,-0.01623 z m 5.6541124,-1.459343 c 0.9734547,-0.07367 1.3173179,-0.356693 1.44252,-1.187285 0.029508,-0.195754 0.035448,-0.694011 0.035167,-2.949756 -2.19e-4,-1.676278 -0.0096,-2.779379 -0.02466,-2.884616 C 9.9490713,15.840192 9.8355747,15.539841 9.6802666,15.367933 9.5217522,15.192477 9.2255365,15.065528 8.8364167,15.006284 c -0.3440258,-0.05238 -5.5475233,-0.05212 -5.8952285,2.97e-4 -0.827804,0.124782 -1.1096285,0.463668 -1.1868921,1.427204 -0.032629,0.406909 -0.034169,4.928959 -0.00182,5.344851 0.080501,1.034959 0.4285169,1.391643 1.4323604,1.468039 0.3773257,0.02872 4.9855557,0.02822 5.366063,-5.77e-4 z"
     id="path320" />
</svg>
