<svg width="25" height="25" viewBox="0 0 25 25" fill="none" xmlns="http://www.w3.org/2000/svg">
<path d="M1.93286 7.25537L12.494 13.1311L22.9833 7.28987M12.494 23.5488V13.1196" stroke="#F6F6F7" stroke-width="1.5" stroke-linecap="round" stroke-linejoin="round"/>
<path d="M10.0182 1.55193L3.63131 4.967C2.18409 5.73741 1 7.66917 1 9.25597V15.7527C1 17.3395 2.18409 19.2712 3.63131 20.0416L10.0182 23.4567C11.3817 24.1811 13.6183 24.1811 14.9818 23.4567L21.3687 20.0416C22.8159 19.2712 24 17.3395 24 15.7527V9.25597C24 7.66917 22.8159 5.73741 21.3687 4.967L14.9818 1.55193C13.6063 0.816023 11.3817 0.816023 10.0182 1.55193Z" stroke="#F6F6F7" stroke-width="1.5" stroke-linecap="round" stroke-linejoin="round"/>
<path d="M18.474 13.9242V9.71576L7.12354 3.41455" stroke="#F6F6F7" stroke-width="1.5" stroke-linecap="round" stroke-linejoin="round"/>
</svg>
