<svg width="25" height="25" viewBox="0 0 25 25" fill="none" xmlns="http://www.w3.org/2000/svg">
<path d="M17.9148 3.32281C20.2478 3.32281 22.1239 5.14556 22.1239 7.38627C22.1239 9.58054 20.32 11.3685 18.0711 11.4497C17.9672 11.4381 17.8623 11.4381 17.7584 11.4497M20.2358 21.8986C21.1017 21.7245 21.9195 21.3878 22.5929 20.8886C24.469 19.5302 24.469 17.2895 22.5929 15.9311C21.9315 15.4435 21.1258 15.1184 20.2719 14.9327M9.19582 11.2988C9.07556 11.2872 8.93124 11.2872 8.79895 11.2988C7.4186 11.2536 6.11068 10.6914 5.15218 9.73142C4.19368 8.77142 3.65987 7.48896 3.66379 6.15562C3.66379 3.3112 6.04497 1.00084 9.0034 1.00084C10.418 0.976206 11.7847 1.49506 12.803 2.44326C13.8213 3.39147 14.4077 4.69135 14.4332 6.05694C14.4587 7.42253 13.9213 8.74198 12.9391 9.72502C11.9569 10.7081 10.6104 11.2742 9.19582 11.2988ZM3.18275 15.5828C0.272418 17.4636 0.272418 20.5286 3.18275 22.3978C6.48993 24.5341 11.9137 24.5341 15.2209 22.3978C18.1312 20.517 18.1312 17.452 15.2209 15.5828C11.9258 13.4582 6.50196 13.4582 3.18275 15.5828Z" stroke="#F6F6F7" stroke-width="1.5" stroke-linecap="round" stroke-linejoin="round"/>
</svg>
