<svg width="25" height="25" viewBox="0 0 25 25" fill="none" xmlns="http://www.w3.org/2000/svg">
<path d="M11.2217 1.28564H8.95018C3.27148 1.28564 1 3.55709 1 9.23569V16.05C1 21.7286 3.27148 24 8.95018 24H15.7646C21.4433 24 23.7148 21.7286 23.7148 16.05V13.7786" stroke="#F6F6F7" stroke-width="1.5" stroke-linecap="round" stroke-linejoin="round"/>
<path d="M16.9456 2.44376L7.996 11.3932C7.65527 11.734 7.31455 12.404 7.24641 12.8924L6.75804 16.3109C6.57632 17.5488 7.45084 18.412 8.6888 18.2416L12.1074 17.7533C12.5844 17.6851 13.2545 17.3444 13.6066 17.0037L22.5562 8.05422C24.1008 6.50964 24.8277 4.7152 22.5562 2.44376C20.2847 0.17232 18.4902 0.899181 16.9456 2.44376Z" stroke="#F6F6F7" stroke-width="1.5" stroke-miterlimit="10" stroke-linecap="round" stroke-linejoin="round"/>
<path d="M15.6624 3.72705C16.039 5.06432 16.7526 6.2825 17.735 7.26487C18.7174 8.24725 19.9356 8.96091 21.2729 9.33751" stroke="#F6F6F7" stroke-width="1.5" stroke-miterlimit="10" stroke-linecap="round" stroke-linejoin="round"/>
</svg>
