<svg width="25" height="25" viewBox="0 0 25 25" fill="none" xmlns="http://www.w3.org/2000/svg">
<path d="M1 24H24M4.32222 8.337H2.27778C1.575 8.337 1 8.8545 1 9.487V19.4C1 20.0325 1.575 20.55 2.27778 20.55H4.32222C5.025 20.55 5.6 20.0325 5.6 19.4V9.487C5.6 8.8545 5.025 8.337 4.32222 8.337ZM13.5222 4.6685H11.4778C10.775 4.6685 10.2 5.186 10.2 5.8185V19.4C10.2 20.0325 10.775 20.55 11.4778 20.55H13.5222C14.225 20.55 14.8 20.0325 14.8 19.4V5.8185C14.8 5.186 14.225 4.6685 13.5222 4.6685ZM22.7222 1H20.6778C19.975 1 19.4 1.5175 19.4 2.15V19.4C19.4 20.0325 19.975 20.55 20.6778 20.55H22.7222C23.425 20.55 24 20.0325 24 19.4V2.15C24 1.5175 23.425 1 22.7222 1Z" stroke="#F6F6F7" stroke-width="1.5" stroke-linecap="round" stroke-linejoin="round"/>
</svg>
