<svg width="25" height="25" viewBox="0 0 25 25" fill="none" xmlns="http://www.w3.org/2000/svg">
<path d="M12.4944 16.1554C13.409 16.1554 14.286 15.7703 14.9327 15.0848C15.5794 14.3994 15.9427 13.4697 15.9427 12.5003C15.9427 11.5309 15.5794 10.6012 14.9327 9.91576C14.286 9.2303 13.409 8.84521 12.4944 8.84521C11.5799 8.84521 10.7028 9.2303 10.0561 9.91576C9.40944 10.6012 9.04614 11.5309 9.04614 12.5003C9.04614 13.4697 9.40944 14.3994 10.0561 15.0848C10.7028 15.7703 11.5799 16.1554 12.4944 16.1554Z" stroke="#F6F6F7" stroke-width="1.5" stroke-miterlimit="10" stroke-linecap="round" stroke-linejoin="round"/>
<path d="M1 13.5722V11.4278C1 10.1607 1.97701 9.11295 3.18391 9.11295C5.26437 9.11295 6.11494 7.55345 5.06897 5.64062C4.47126 4.5441 4.82759 3.11861 5.87356 2.48506L7.86207 1.27888C8.77011 0.706254 9.94253 1.0474 10.4828 2.0099L10.6092 2.24139C11.6437 4.15422 13.3448 4.15422 14.3908 2.24139L14.5172 2.0099C15.0575 1.0474 16.2299 0.706254 17.1379 1.27888L19.1264 2.48506C20.1724 3.11861 20.5287 4.5441 19.931 5.64062C18.8851 7.55345 19.7356 9.11295 21.8161 9.11295C23.0115 9.11295 24 10.1486 24 11.4278V13.5722C24 14.8393 23.023 15.887 21.8161 15.887C19.7356 15.887 18.8851 17.4465 19.931 19.3594C20.5287 20.4681 20.1724 21.8814 19.1264 22.5149L17.1379 23.7211C16.2299 24.2937 15.0575 23.9526 14.5172 22.9901L14.3908 22.7586C13.3563 20.8458 11.6552 20.8458 10.6092 22.7586L10.4828 22.9901C9.94253 23.9526 8.77011 24.2937 7.86207 23.7211L5.87356 22.5149C5.37253 22.2091 5.00641 21.7051 4.85557 21.1135C4.70472 20.5219 4.78147 19.8911 5.06897 19.3594C6.11494 17.4465 5.26437 15.887 3.18391 15.887C1.97701 15.887 1 14.8393 1 13.5722Z" stroke="#F6F6F7" stroke-width="1.5" stroke-miterlimit="10" stroke-linecap="round" stroke-linejoin="round"/>
</svg>
