<svg width="18" height="16" viewBox="0 0 18 16" fill="none" xmlns="http://www.w3.org/2000/svg">
<path d="M5.66373 5.07292C5.31183 4.72536 5.31183 4.16353 5.66373 3.81597C6.01563 3.46842 6.58437 3.46842 6.93627 3.81597L8.1 4.96539V0.888889C8.1 0.397333 8.5032 0 9 0C9.4968 0 9.9 0.397333 9.9 0.888889V4.96539L11.0637 3.81597C11.4156 3.46842 11.9844 3.46842 12.3363 3.81597C12.6882 4.16353 12.6882 4.72536 12.3363 5.07292L9.63627 7.73958C9.46077 7.91292 9.2304 8 9 8C8.7696 8 8.53923 7.91292 8.36373 7.73958L5.66373 5.07292ZM13.5 6.22222C13.0032 6.22222 12.6 6.61956 12.6 7.11111C12.6 7.60267 13.0032 8 13.5 8C14.9886 8 16.2 9.19644 16.2 10.6667V11.5556C16.2 13.0258 14.9886 14.2222 13.5 14.2222H4.5C3.0114 14.2222 1.8 13.0258 1.8 11.5556V10.6667C1.8 9.19644 3.0114 8 4.5 8C4.9968 8 5.4 7.60267 5.4 7.11111C5.4 6.61956 4.9968 6.22222 4.5 6.22222C2.0187 6.22222 0 8.216 0 10.6667V11.5556C0 14.0062 2.0187 16 4.5 16H13.5C15.9813 16 18 14.0062 18 11.5556V10.6667C18 8.216 15.9813 6.22222 13.5 6.22222ZM14.4 10.6667C14.4 10.176 13.9968 9.77778 13.5 9.77778C13.0032 9.77778 12.6 10.176 12.6 10.6667C12.6 11.1573 13.0032 11.5556 13.5 11.5556C13.9968 11.5556 14.4 11.1573 14.4 10.6667Z" fill="#F6F6F7"/>
</svg>
