<svg width="13" height="16" viewBox="0 0 13 16" fill="none" xmlns="http://www.w3.org/2000/svg">
<path fill-rule="evenodd" clip-rule="evenodd" d="M0 8.8001C0 7.03279 1.45507 5.6001 3.25 5.6001H9.75C11.5449 5.6001 13 7.03279 13 8.8001V12.8001C13 14.5674 11.5449 16.0001 9.75 16.0001H3.25C1.45507 16.0001 0 14.5674 0 12.8001V8.8001ZM3.25 7.2001C2.35254 7.2001 1.625 7.91644 1.625 8.8001V12.8001C1.625 13.6838 2.35254 14.4001 3.25 14.4001H9.75C10.6475 14.4001 11.375 13.6838 11.375 12.8001V8.8001C11.375 7.91644 10.6475 7.2001 9.75 7.2001H3.25Z" fill="white"/>
<path fill-rule="evenodd" clip-rule="evenodd" d="M3.25 3.2C3.25 1.43269 4.70507 0 6.5 0C8.29493 0 9.75 1.43269 9.75 3.2V3.6C9.75 4.04183 9.38623 4.4 8.9375 4.4C8.48877 4.4 8.125 4.04183 8.125 3.6V3.2C8.125 2.31634 7.39746 1.6 6.5 1.6C5.60254 1.6 4.875 2.31634 4.875 3.2V6.4C4.875 6.84183 4.51123 7.2 4.0625 7.2C3.61377 7.2 3.25 6.84183 3.25 6.4V3.2Z" fill="white"/>
</svg>
