<svg width="16" height="16" viewBox="0 0 16 16" fill="none" xmlns="http://www.w3.org/2000/svg">
<path fill-rule="evenodd" clip-rule="evenodd" d="M1 8.8001C1 7.03279 2.567 5.6001 4.5 5.6001H11.5C13.433 5.6001 15 7.03279 15 8.8001V12.8001C15 14.5674 13.433 16.0001 11.5 16.0001H4.5C2.567 16.0001 1 14.5674 1 12.8001V8.8001ZM4.5 7.2001C3.5335 7.2001 2.75 7.91644 2.75 8.8001V12.8001C2.75 13.6838 3.5335 14.4001 4.5 14.4001H11.5C12.4665 14.4001 13.25 13.6838 13.25 12.8001V8.8001C13.25 7.91644 12.4665 7.2001 11.5 7.2001H4.5Z" fill="white"/>
<path fill-rule="evenodd" clip-rule="evenodd" d="M4.5 3.2C4.5 1.43269 6.067 0 8 0C9.93299 0 11.5 1.43269 11.5 3.2V6.4H9.75V3.2C9.75 2.31634 8.9665 1.6 8 1.6C7.0335 1.6 6.25 2.31634 6.25 3.2V6.4H4.5V3.2Z" fill="white"/>
</svg>
