<svg width="41" height="44" viewBox="0 0 41 44" fill="none" xmlns="http://www.w3.org/2000/svg">
<path d="M41 3.61933V11.9631C41.0007 12.4963 40.8879 13.023 40.6697 13.5056C40.4514 13.9882 40.1331 14.4147 39.7376 14.7546L33.5494 20.0761C31.2744 22.0259 27.8419 20.3475 27.8419 17.2846C27.842 16.8093 27.7519 16.3386 27.5768 15.8994C27.4017 15.4603 27.145 15.0612 26.8214 14.7251C26.4978 14.389 26.1135 14.1224 25.6907 13.9406C25.2678 13.7587 24.8146 13.6652 24.3569 13.6653H16.6431C16.1854 13.6652 15.7322 13.7587 15.3093 13.9406C14.8865 14.1224 14.5022 14.389 14.1786 14.7251C13.855 15.0612 13.5983 15.4603 13.4232 15.8994C13.2481 16.3386 13.158 16.8093 13.1581 17.2846V35.4219C13.1588 35.9766 13.0367 36.524 12.8013 37.0219C12.5658 37.5199 12.2234 37.9549 11.8004 38.2936L5.61128 43.2448C3.32005 45.0738 1.3052e-07 43.3725 1.3052e-07 40.3731V3.61933C-0.000125144 3.14399 0.0899315 2.67329 0.265025 2.23412C0.440118 1.79494 0.696816 1.3959 1.02045 1.05979C1.34409 0.723675 1.72832 0.457082 2.1512 0.27524C2.57408 0.0933979 3.02731 -0.000129968 3.485 1.3555e-07H37.515C37.9727 -0.000129968 38.4259 0.0933979 38.8488 0.27524C39.2717 0.457082 39.6559 0.723675 39.9795 1.05979C40.3032 1.3959 40.5599 1.79494 40.735 2.23412C40.9101 2.67329 41.0001 3.14399 41 3.61933Z" fill="#6FC8CC"/>
<path d="M22.4395 26.2605C21.6494 26.8944 21.0102 27.7083 20.571 28.6395C20.1318 29.5706 19.9045 30.5941 19.9065 31.631C19.9085 32.6678 20.1399 33.6903 20.5827 34.6196C21.0255 35.5489 21.6679 36.3601 22.4605 36.9907L29.4629 42.5707C30.6008 43.4758 31.9941 43.9665 33.4275 43.967C39.6566 43.967 42.3378 35.7628 37.3959 31.8256L30.3935 26.2417C29.2515 25.3328 27.8521 24.8418 26.4134 24.8452C24.9747 24.8486 23.5775 25.3462 22.4395 26.2605Z" fill="#F6F6F7"/>
</svg>
